/* XPM */
static char *_521758571572[] = {
/* columns rows colors chars-per-pixel */
"75 75 256 2 ",
"   c #14161A",
".  c #0A1118",
"X  c #271607",
"o  c #271E17",
"O  c #371B14",
"+  c #301502",
"@  c #2B2607",
"#  c #342B05",
"$  c #3A3409",
"%  c #2A2515",
"&  c #26231D",
"*  c #2A251C",
"=  c #2C2A1C",
"-  c #292914",
";  c #322D14",
":  c #322D1C",
">  c #382419",
",  c #2B361A",
"<  c #34321D",
"1  c #3A351B",
"2  c #333C1C",
"3  c #3D3B1C",
"4  c #383615",
"5  c #2A330A",
"6  c #151A23",
"7  c #1A1C24",
"8  c #1B1E29",
"9  c #141823",
"0  c #1E222C",
"q  c #1C2225",
"w  c #1C2230",
"e  c #262521",
"r  c #292621",
"t  c #262A22",
"y  c #2B2B23",
"u  c #22242D",
"i  c #282A2C",
"p  c #312D22",
"a  c #382A25",
"s  c #2D3124",
"d  c #2C3727",
"f  c #343223",
"g  c #3A3523",
"h  c #343D23",
"j  c #3C3A24",
"k  c #35332A",
"l  c #3A352C",
"z  c #3C3B2B",
"x  c #363929",
"c  c #222632",
"v  c #272B35",
"b  c #2C3436",
"n  c #383C37",
"m  c #1D2618",
"M  c #451910",
"N  c #473B07",
"B  c #48281B",
"V  c #423D1B",
"C  c #483A17",
"Z  c #512E11",
"A  c #61380F",
"S  c #492C25",
"D  c #512E23",
"F  c #423D23",
"G  c #483828",
"H  c #543224",
"J  c #5A3523",
"K  c #55342A",
"L  c #5C3A2B",
"P  c #5A3928",
"I  c #4A3A33",
"U  c #563C32",
"Y  c #633D2B",
"T  c #633C25",
"R  c #633E31",
"E  c #401C20",
"W  c #34431C",
"Q  c #3B4B1E",
"!  c #394418",
"~  c #3C531D",
"^  c #334011",
"/  c #354322",
"(  c #3B4423",
")  c #3C4C22",
"_  c #3B452A",
"`  c #3E5122",
"'  c #3B4539",
"]  c #2E4125",
"[  c #474509",
"{  c #554806",
"}  c #5B560A",
"|  c #47481A",
" . c #554B16",
".. c #44531D",
"X. c #4A551D",
"o. c #4C5B1E",
"O. c #455B1D",
"+. c #575619",
"@. c #685906",
"#. c #765B03",
"$. c #655918",
"%. c #694D0D",
"&. c #4C631E",
"*. c #55631E",
"=. c #766705",
"-. c #6A6518",
";. c #746918",
":. c #7A7417",
">. c #716B07",
",. c #434424",
"<. c #4B4524",
"1. c #424C23",
"2. c #47482A",
"3. c #544926",
"4. c #445322",
"5. c #4B5523",
"6. c #455A22",
"7. c #4D5C21",
"8. c #4B542B",
"9. c #49582C",
"0. c #525D23",
"q. c #525B2B",
"w. c #595628",
"e. c #474639",
"r. c #584636",
"t. c #495835",
"y. c #575835",
"u. c #69432C",
"i. c #744B2E",
"p. c #645B26",
"a. c #684734",
"s. c #724C35",
"d. c #665936",
"f. c #765437",
"g. c #715A29",
"h. c #4C6323",
"j. c #4D6627",
"k. c #536323",
"l. c #546A23",
"z. c #55632A",
"x. c #5A6828",
"c. c #4C6638",
"v. c #576736",
"b. c #5C7038",
"n. c #676426",
"m. c #766A27",
"M. c #797426",
"N. c #696535",
"B. c #756C37",
"V. c #787532",
"C. c #313643",
"Z. c #3C4744",
"A. c #3E5247",
"S. c #474A47",
"D. c #504B45",
"F. c #4A5549",
"G. c #585648",
"H. c #4B5452",
"J. c #565C5A",
"K. c #4C4D51",
"L. c #785946",
"P. c #685544",
"I. c #4B6647",
"U. c #546A47",
"Y. c #556959",
"T. c #4E6B54",
"R. c #676544",
"E. c #726D4F",
"W. c #557367",
"Q. c #5B6264",
"!. c #856A03",
"~. c #897907",
"^. c #967B05",
"/. c #867918",
"(. c #947C17",
"). c #846E13",
"_. c #845A35",
"`. c #867827",
"'. c #877935",
"]. c #8C7031",
"[. c #9C6E29",
"{. c #835F45",
"}. c #8B744A",
"|. c #A17E53",
" X c #7F811C",
".X c #8E8109",
"XX c #998807",
"oX c #988819",
"OX c #928A19",
"+X c #A48D05",
"@X c #AC9403",
"#X c #AB930B",
"$X c #A79606",
"%X c #B49B03",
"&X c #B89C07",
"*X c #A89516",
"=X c #B49A16",
"-X c #AA8C15",
";X c #BCA303",
":X c #B9A508",
">X c #BAA717",
",X c #AFA212",
"<X c #978826",
"1X c #998A34",
"2X c #938A2C",
"3X c #A89727",
"4X c #A99837",
"5X c #B08F32",
"6X c #B8A726",
"7X c #B6A537",
"8X c #AFA732",
"9X c #C3AB04",
"0X c #C6A908",
"qX c #CAB607",
"wX c #D5B908",
"eX c #C7AA17",
"rX c #CAB516",
"tX c #D6B815",
"yX c #D3AC19",
"uX c #C5982A",
"iX c #C2AC24",
"pX c #C8B834",
"aX c #CCB12D",
"sX c #CEA717",
"dX c #DAC407",
"fX c #D9C417",
"gX c #E4CD0B",
"hX c #E4CA08",
"jX c #EBD40C",
"kX c #E9D508",
"lX c #E7CA17",
"zX c #ECD516",
"xX c #F1D819",
"cX c #F2DB0F",
"vX c #DBC426",
"bX c #D8C938",
"nX c #E7CB24",
"mX c #ECD325",
"MX c #F4D928",
"NX c #F7DB36",
"BX c #E7D034",
"VX c #F4E229",
"CX c #F6E436",
"ZX c #98864B",
"AX c #AD914C",
"SX c #B7A649",
"DX c #A99A61",
"FX c #C4954A",
"GX c #CDB745",
"HX c #CBB36D",
"JX c #D5C849",
"KX c #ECD644",
"LX c #F8E745",
"PX c #F8E852",
"IX c #ECC069",
"UX c #F5CD88",
/* pixels */
"<.N ).7X.X7X4X;.M.{ n.B.$.$.;.;.m.[ # 3 2.g = l z * y = = g y = = 2.w.N. .3.G j g g : d f f s y f d y s s t t e r y e e r r y & y f f g V 3.d.; 3 < : ",
"V C 1XSXoX4X2X;.'.$.} $.g.$.<X2X:.V.w.I j : * l I & y y y G g y * - G 3.V <.1 < < h < : = y s = y y y y s y t r e i y & e r y & & = * z y.2.F ; N.2.= ",
"C | '.1X3X/.2X-.@.M.m.'.-.`.4X4X1Xm.| ; : y = & y y & y p = f y p y % % ; 3 3.V ; G r.3 = y = s y & y t s t e t t t y e r r r y y * = z ,.g = < 3.2.: ",
"3 4 %./.1X/./.@.-.`.`.@.{ '.7XoX`.+.; - = = y y y = & y y = g 5 @ @ # $ N [ p.+.4 | q.3 = = = f g r s d y t r r y s t i r r r r k k = = j 2.: g F < : ",
"V | m.1X5XoX<X1XAX:.2X-.} M.4X`.;. . .V 1 : s s y & * y J.G.@ # { :././.:.2XM.:.x.+.7.W , - < ,.f = s i t t e e t s e y i & q o e r & y f g y g p p : ",
"C  .`.1X4XOX=./.OX/.1X;.$. .;.'.V. .p.w.<.1 : f y = - % P.B.-.<X3X*X*XXXXX.X.X:.:.x.0.8.9.' t._ y t s t t s e & t * % < g o o e & e y r = f f f f = y ",
"C C m.1X'.@.#.`./.OX2X@.p.N +.w.+.g.g.'.N.! < < = - @ @ >.6X6X*X*X$X$X$XXXXX.X:.:.-.o.9.` I.I.A.d q d t e y s e y - 3 d.w.3 % e y e t e s s f p f f s ",
"p.g.'.;. .-.1X4X<X<X7X/.w.$ | V  .N.n.p.w.| 4 <.<.# N 2XpX>X:X:X@X$X:X%X$XXX.X~.:.;.n.9.` A.A.T.T.' m t y e i y s - 3.}.N.w.g = = % o % - = s f f y f ",
"B.'.m.$.C } ).<XoX*XGX<X .V 1 V C 3.d.C | ,.,.y.$ } 7XiX>X;X9X;X;X%X&X%X$XXXXX~./.;.n.7.` A.I.T.W.W.A.t s t & e s = $ N.w.| 2.* % 1 a.r.g * = f f s s ",
"+. .C N.N p.4X<X7X8X7X`.+.3 4 G F <.w.4 1 4 $ # >.bXrX;XdX9XqX9X;X;X%X+X+X+XXX~./.:.n.7.c.` I.I.W.W.W.F.t = y y k , $ B.N.| ; % $ |.}.f.G.G * y s f f ",
"C 4 <.3.N DXSXoX1X;.:.M.w.1 1 2.,.j 3.<.V V # @.bXrXqXqXqXqX9X9X9X&X%X%X@XXXXX.X/.:.*.0.9.c.t.T.T.T.T.Y.F.( = = = 1 [ }.w.| = X ].ZXJ r.r.G.f * p f s ",
"1 F F $ C m.`.<X<X>.$.p.V ; : g g 1 j <.C  .@.pXfXdXdXwXqX;X9X;X;X;X;X%X$X+XXX.X:.:.+.X.9.9.F.U.T.T.T.I.U.v.< - = 2.| }.N.3 @ $ DX;.V r.D.D.e.% & f g ",
"g j g 1 1 $ N 1X1X`.$.| 3 : > : f < : ; ^ -.pXvXdXdXdX;XqX;X;X;X;X;X;X;X%X$X$XXXXXOXV.x.j.t.t.I.T.T.U.c.c.c.' - = r.| w.5.| + m.HX$.3.D.S.e.G.k o y k ",
"g g g g 4 # { 1X4X:.m.C ; : f p f f g 4 $ OXBXdX;X;X:X:X;X;X;X;X;X;X;X;X;X$X$XXX.X>.>.*.6.c.I.U.T.U.c.c.9.c.9., - : 3 3 3.[ $ SXFX$.r.D.I e.P.r.o & y ",
"g < j V $ ].GX(.2X1X1Xp.d.1 < p p : h $ { bXvXdXdXdXdX:X@X@X%X9X;X9X9X;X:X$X$XXXXX.X/.M.z.9.I.T.T.I.I.c.` j.9.1.; - g ; d.[ =.GX4X$.d.I g 3.}.d.* r y ",
"g g F 4  .SXuX-X@.n.M.p.y.V : p f < < [ 2X7X,X%X$X:X:X:X+X+X@X&X;X9X9X;X%X,X>X,X*XOX/.m.+.q.U.U.T.I.c.c.j.6.h.z.h - p < j  .4XGXAX_.p.F F E.}.p.% y y ",
"g : l # `.5X(.5X_. .$ 4 ; < g p < 4 3.$.).(.oX#X+X+X%X0X%X+X@X&X9X0X9X;X0XiX*X(.#.#.%.+. .5.y.U.U.U.c.c.j.` 6.j.t.m = y & 4 '.AXZX].}.L.R.R.d.a * r y ",
"S : a N 1X5X[.5X'.g.<.; f x l : ; w.m.%.%.@.!.oX=X#X+X@X&X&X&X0X0X9X0XyX>X^.#.#.@.-.$.$.w.3.2.2.b.U.U.c.j.h.h.6.t., = t d x  .p.p.N V 1 : ; % * y r y ",
"<.3 < | AX<X`.1X'.f.y.F , g = ; C { #./.oX=.#.#.).-X=X@X%X&X;X0X0XqXtX>X~.%.@.;.).:.;.-.$.| | 3 ] c.c.l.j.j.h.h.9.h & b n S.z = % o X & * o & r r y p ",
"w.2.;  .SX(./.[.ZXg.a.2.z : f 4 $.`.3XpXaX6X3X!.#.^.=X&X&X&X0X0X0XwXeX~.@.$.$.:./.OX`.-.+.3.2.,.] ~ c.j.j.j.j.6.4.W z ' S.' i y y y u r p i r r o y p ",
",.F ; +.5X^.(.AX].d.P.2.2.F 4 $  XpXvXfXfXfXrX6XXX~.#XeX;X%X0X;X0XrXoX@.+.+.$.M././.:.*.X.1.1.8.W , ` 9.j.j.j.6.4.( ' ' n * = G.G - & r r i s y e r a ",
": g 4 C FXpX4Xg.3.r.r.e.r.w.| { ,XrXdXdXdX;X:X:X6X#X$X&X0X;XrX;X;X6X;.[ | ^ +.-.:./.-. .! W W ,.) W W 6.h.j.h.h.4._ z _ g - ; 8.e.< y y r r y y r e y ",
"1 j V $ +.n.$ X % p G d.'.'.].(.,XfXdXqX:X:X:X$X$X$X$X@X:XeXyX%X+X<X} | , , 4 ! +.-.+.[ 2 ] h / / / / 4.6.j.j.h.6.) Q ! w.w.2.j p = p r r r & y r r & ",
"; y.r.1 C ; < k f g < C V.AX3X=XrXqXqXqX:X$X$XXX.XXX*X=X&X:XeX@X~.M.4 , d , , 5 N $.p.+.! , d , h ] / ) 4.7.h.h.h.O.! z.ZXp.3 - & r r & e r o y i r r ",
"1 G.r.4 < g < = g 2.I ; # $.1XiXrXqX:X,X$XXX~.~.=.=.XX&X&X0X=X-X>.| 4 d , , - 4 :.<X1X'.w.| d , , 2 / ( 1.6.l.l.k.h.O.l.V.w.; ; = r r e o i y y y i r ",
"1 1 j < g < < g 1 j g : ; # } 6XrX,X,X$X=X*XoX~.;.#.(.*X@X&X&X-X;.$ 2 h d , - N.ZX1X;.i.V j G _ h d 2 2 Q 7.z.l.l.l.&.&.o.X.| < = = y * & y k * r r r ",
"j j g : : : V G F g p : : 3 # /.aX@X$X6XuX7X5X`.m.} @.oX&X0X&X+X-.N h h h : 4 d.Z + + + a > r y _ h / ! | 7.x.x.l.l.l.*.k.X.N.3.< 1 p = o r k y y r e ",
"f f f < : g y.2.F : : p f 4 # (.>X@XXX=.#.Z N Z C | { ).yXwXsX=X/.{ ! _ h 4 @ a.D O E S I D.I f z _ j 1.5.z.x.x.l.*.l.l.x.| n.N.<.j F p r e r r y & o ",
"f f g z G z F <.2.< : f f 4 # 4XrX:X!.|.A + M M U G C #.eXtXwX=XoX$.| ( _ ; # |.f.M M S S I I 2.2.1.1.8.5.z.x.x.x.l.l.j.z.! # <.F 2.2.g s o y r y y y ",
"f s = g g g g 2.F : p 1 $ $ #.GXtXeX-XUX_.B B D I r.J { eXlXtX;X*X>.[ 1.9.( C }.i.Z M Z U 2.<.<.| 4 |  .0.x.b.x.x.l.l.l.x.Q 5 < - < a = p y o p y y y ",
"p = p = y : f g f : ; | m.(.6XNXtXtXuXIX_.M M M U u.N !.vXwXsX&X*XOX-.5.t.8.,.p.1X|.]._.g.3.| $ [ } -.;.x.x.b.x.x.l.l.l.l.6.; < : * p f k * * F f y y ",
"p a l p f y : f l < ; n.4X6XvXnXwXwXyXuX[.%.A _.p.N @.aXtX0X0X%X$XoXV.b.y.t.8. .-.[./.=.{ [ { $.:.2X1XOX-.x.b.b.b.x.l.l.j.h.4 z 2.4 g g y p * t.G : = ",
"o a p = p y = : f 1 | m.5X-XnXlXwX0XyXsXuX5X[.#.%.~.aXtX0X&X&X@XXX(.n.b.c.c.q.w.p.$.;.)./.(.oX=X6X6X<X:.*.x.x.b.n.l.l.l.l.l.2 | E.,.1 l = x = g g < f ",
"* y y y p p p p ; V $.`.3XiXMXhXwXwX0X0X%X^.^.^.>XnXtX0X0X0X&X&X#XOXM.R.U.U.t.8.5.n.M./.oX-X-X>X&X=X<X-.$.x.N.x.x.x.l.l.&.&.2 ; w.2.; g = g = = g z < ",
"p y = = p y p p # N.:.1XoXaXNXlXwXwXwXwX0X0XtXnXnXtXtX0X0X0X&X&X*X<XM.v.R.R.b.U.v.q.p.M.`.<X-X=X=X<XM.$.x.x.n.k.x.x.l.l.l.j.( ; g G y f f = f g j z 2.",
"f * p f = * y ; [ ZXAX).=.BXNXnXhXwXwXwXwXwXhXlXlXlXlXyXwXsX&X&X+X<Xm.v.v.U.v.v.v.z.3.+.-.).(.<X<X`.n.q.k.x.x.n.x.l.l.l.&.z.,.* l e.f f g f z g ,.V 2.",
"p : p F f = = 4 m.;.B.N !.PXNXMXlXhXwXlXgXlXwXlXxXlXvXyXsX0X0X&X-X(.p.q.v.v.v.v.v.v.1.V 5.$.;.M.M.N.n.z.z.n.x.x.x.l.l.&.&.l._ - a I k p < g g : e.1 2.",
"g = : e.g p = F DXB.C m.5XPXLXNXmXlXlXlXnX9X@XmXlXlXwXsX0X0X;X@XoX/.p.q.q.q.t.y.y.t.t.2 ! 2.w.w.w.w.y.q.q.q.x.k.*.*.l.*.&.x.) - l e.k s g g : 4 g V 2.",
": = = g p y y > ,.3 4 $.<XPXLXNXNXNXnXnXyX^.XXBXlXtXwX0X0X0X&X-XoX;.w.q.t.2._ _ _ 9.2./ g h ( 1.1.2.8.8.q.0.0.+.+.*.k.k.l.j.4.& n D.f = f < 5 3.C 3 V ",
"1 < = = p p % * @ I r.+ <XPXNXNXNXnXlXyX=X=.^.eX%XtXtXsXeX=X-XoX`.$.8.1.3 , , - , ( 8.2./ , 2 2 ! 1.1.8.5.X.X.0.k.k.&.*.&.j.9.- l S.k = < F 2.DXw.3.y.",
"w.| V < > : % > U P.n # 7XPXNXMXMXnXtX=XoX@.+X%XN !.+X#X^.[.`.p.| 3 4 / 1.,.1.2.8.5.5.9.8.,.2 < h , / ( ( | ..5.o.o.o.k.*.x.9.- I K.a f < 2.w.}.y.; j ",
"B.d.<.F S G r.s.L.O a w.3XNXmXxXlXyX&XXX=.~.vXvXaX=X+X@X^.%.# + @ @ $ | | ..| 5.5.3.5.w.q.8.8.t._ ( h < , 2 Q 4.X.o.&.k.l.x.9.- l D.z l l < 4 ; ; = f ",
"N.d.F a.f.f.i.{.r.o G.[ XXCXzXlX0X;X-X=.!.BXmXlXlXtXwXsXsX&X+X^.~.~.~.@.@.+.+.o.X.q.q.q.q.q.q.q.q.q.q.1.W ! Q ..X.o.o.k.l.x.c., n K.l n k = = * & = q ",
"= @ C {.f.i._.}.l l G.[ 6XVXlXdX0X@X#.~.BXMXlXzXhXhXwXwXqX;X=XeXyXrXaX6XoX<XM.m.n.w.q.q.q.8.q.q.q.q.q.v.z.4.4.5.X.7.k.*.l.j.9.m k K.Z.n e r y s t t q ",
"  - f._.i.i.i.J i n r.} vXxXzXdX0X~.!.KXNXMXmXMXxXlXlXlX0X&X0X0XtXtXlXBX>X3X<X2Xn.z.q.q.t.q.9.8.4.5.0.z.N.7.5.7.o.k.l.k.l.l.c.h . c A.d t e i s b i u ",
"o G {._.T u.{.G k S.j -.bXMXgXfX0X.XvXLXmXMXMXMXMXmXlXnXtX%X;X0XwXhXlXlXrX#XOXM.n.q.q.t.q.t.2.1.3 3 5.z.x.0.7.h.&.k.k.k.&.k.j.t.] . q b i u e u u e   ",
"O U _._.i.B L.B l E.b.@.bXCXgXgXqX9XCXNXxXxXNXMXNXmXmXnXrX%X0XwXwXhXlXnXrX*XOXM.k.q.q.q.t._ x - = 3 5.0.x.k.k.0.k.k.k.&.&.j.h.c.` ' 6 9 b c 8 6 7 9 q ",
"B 3.f.f.s.H f.P g G.U.^ 6XCXzXzXdXwXCXMXxXxXMXNXMXMXMXMXtX&X0XtXwXwXlXnXiX<XV.N.q.t.8.x = &     h q.q.0.k.k.k.x.k.k.&.h.h.&.O.j.c.t.' . w C.v 8 8 u u ",
"J s.s.T Y D s.D y G.G.^ $XPXVXcXdXzXVX;X9XxXMXxXMXMXMXNXtXeX0X0XqXtXnXpXSXV.q.2.x y m y n i   f ( q.0.o.h.k.7.h.k.o.o.h.o.O.&.h.j.j.I.d . w C.C.w w w ",
"J u.i.T J T P.R a G.t.[ OXLXVXVXzXzXMX9X%XqXlXxXNXKXKXKXKXpXaXpXaXpXGX1X .@ - e i n u Z.' t y ,.8.q.0.&.&.k.7.o.&.o.h.7.O...O.h.&.j.b.I.q 6 C.C.C.v w ",
"J i.u.J Y T Y K y J.y.p..XPXVXVXVXkXxXxXxX&X@XuXuX[.5XAXAX1X]._.n. .5 @ = f q n C.n 7 i l g 2.2.q.x.0.o.&.h.7.h.0.o.&.O.O.~ O.&.l.j.b.c.] . v Z.C.w C.",
"u.i.P T R i.R L a e.G.3.>.PXVXcXVXkXcXkXcXlX&X^.^.!.A A Z # + + X X k I S.e.o r l = > 2.P.N.y.5.+.x.k.o.7.o.h.k.k.o.7.5.~ ~ O.&.l.j.l.c.A.v 6 w C.w C.",
"u.T T T i.i._.{.G l U.+.>.KXVXkXjXkXcXcXcXzXdXeXuXuX[.[.A i._.T r.G 3.G r.F X B f.}.|.AX}.q.q.0.k.k.k.o.7.7.X.o.h.h.6.~ ~ ~ &.&.&.&.j.c.A.b . c w w C.",
"u.T Y Y T Y _.i.> l G.E.} pXCXkXcXzXkXcXjXkXjXdXyXuXGXFXFX5X|.|.}.].{.|.|.}.|.DXDXAXZXg.+.| X.o.0.7.7.o.O.7.o.7.6.h.6.` ~ ~ O.&.&.l.l.b.' Z.. 6 w v v ",
"u.J i.i.T H i.f.r.o _ U.O.8XCXkXcXjXkXcXkXkXkXdXlXyXyXaXuXuXFXFXFXFXFXSXAXAXAXZXB.w. .| X...X.5.o.7.o.6.O.7.7.7.7.6.` ` ` ~ &.&.&.l.l.b.c.A.q w v w w ",
"K J u.Y Y Z T s.r.> ' c.j. XLXcXcXkXkXkXkXkXkXdXlXhXyXyXuXuXuXuXuX[.5X|.[._.$. .| | 4.) Q 6.5.X.5.X.X.7.o.7.O.7.7...~ ~ ~ ~ O.&.h.l.l.b.' Z.w 6 w w v ",
"D D T T Y J J Y f.L a S.t.*.BXVXxXzXkXkXkXkXdXkXdXdXdXdXqX:X$XXX(./.;.$. .^ ! ..Q 4.1.` ..4.6...O.X.5.O.o.7.7.7.6.` Q Q ~ h.~ h.h.k.l.b.' F.c w v 8 u ",
"K D J u.i.T L T {.P o H.e.[ 8XCXzXxXkXgXkXkXkXdXdXdXdXdXqX:X,X.X~.;.+.X.Q Q ( ) ) ` ) ` ~ Q Q ~ ....O.o.o.o.7.6.4.Q Q ` ~ ~ &.&.k.h.x.c.' F.b . w v u ",
"K D J J u.R B D T R l S.n 6. XKXBXxXzXhXkXkXdXdXdXdXdX:X:X:X$X.X/.-.+.| W W ] / / Q ) Q Q Q Q | ....X.X.k.7.7.4.) W ~ ~ ~ O.O.&.l.l.z.) ] S.v w u 8 u ",
"K H T H T Y T Y Z a.U l ' ] } JXCXVXzXkXkXkXkXdXdXdXdXdX:X:X$X.X:.-.X.! W ] W ( / W W Q Q Q ......5.7.7.o.0.7...W Q ` ` O.X.o.h.l.j.v.t.b H.q 6 c u u ",
"K Y R i.K J a.D Z f.L.1 D.S.4.1XPXVXmXzXkXkXhXdXqXdX:XdXqX:XXX.X>.-.+.! , ] ] W W / ( Q / ` | ..X.7.0.o.7.5.6.W W ) ` ..6.O.7.k.k.x.t.e.C.J.v 9 8 8 8 ",
"J Y i.Y Y D Y D B L.{.S l S.z o.JXCXCXVXzXgXkXdXdXqXdX:X;X;X$X.X>.-.+.^ ^ 2 2 W ( ! W Q ` | 6.7.7.k.o.0.7.6.W W ~ ` ......X.0.k.x.z.9._ S.K.8 c 9 9 w ",
"R Y a.T H D D K K D s.B o I ' ! OXPXNXxXzXjXgXgXdXdXdXdXqX;X%XXX~.>.} [ [ ^ ^ ! 1.1.6.5.6.5.7.0.0.0.o.o.6.) ^ Q 4.~ ....X.7.k.0.l.v.' ' K.n 9 8 u w 8 ",
"Y T Y J L D U R B > L a.I S.H._ [ SXLXxXzXzXkXkXkXhXdXdXdXqX9X$X*X.X:.:.:.;.*.+.X.X.5.5.7.k.x.w.0.o.o.5.` ^ W ` ......5.o.&.o.z.t.` ' Z.J.C.9 u 8 u 8 ",
"Y i.Y Y R D K R > D Y {.U r K.e./ *.bXmXzXjXzXzXkXhXkXkXhXhXwX0X,X$X$X*X*XOXOXOX*.&.o.0.k.z.0.7.7.5.4.Q ^ W ` ~ ..X.O.X.h.&.7.z.t.n n H.J.v w 0 8 w w ",
"T T i.J J D B K R L J a.U S I H.n 4 :.BXmXzXgXxXjXkXkXkXkXhXhXwXdX,X,X,X>X>X>XOX X*.0.k.0.h.7.7.5.6.Q W W ` ` ~ ..O.X.o.7.k.k.t.] b Z.A.J.6 0 0 c 8 8 ",
"D Y Y H K D B D {.Y S S L.S * D.' ' ! 2XbXgXgXgXcXkXkXkXkXhXdXfXqX:X:X:XdX>X>XOX-.o.q.7.7.9.6.6.4.Q ^ W ) Q ~ ..X.X.o.0.k.h.t.t.b Z.H.J.n 0 7 7 u E 7 ",
"T s.Y D D Y K R a.P O S K > U S.K.F.' 2 OXbXvXdXgXhXhXhXdXdXdXwXqX:X$X,X,X,XOX X+.| ..4.4.4.4.` / W W ) ......6...o.0.&.0.q.9.d ' Z.H.J.q c 8 . u c 8 ",
"Y R J Y D D K L K L S O O L.L.E e.K.S.x 4 M.bXfXdXdXdXdXdXdXqX;X:X$XXX.XOXOX:.} ..~ ` ` ` ) ) / W Q | ......X.X.o.o.*.0.h.v.' t Z.Z.H.S.6 i 8 8 9 8 9 ",
"Y J J R J D D D D U K U X P.{.D p K.K.F.e.^ -.6XvXfXdXdXdXdXqX;X$XOX~. X XM.n.X.Q W ) / / ] , W W ) ~ ......O.O.o.o.0.k.q.9.' Z.S.H.K.u 7 7 . 8 7   8 ",
"R J K K K Y R S L R r.S X E P.S o D.D.S.H.F.! +. XpXfXrXqXqX:X,X*XOX:.-.*.o.Q W / ] ] , , ] W ` ....| O.O.O.o.o.o.o.j.z.t.' Z.Z.A.J.b 6 u 7 7 8 u 7 v ",
"Y R D D H K Y S E L D.o E I O R P.I D.S.F.F.' x ~ >.OX>X6X,X,X*X.X*.[ ! ! 5 , , m , , , W ` ~ ..| ....O.+.o.o.+.7.q.z.9.' d Z.H.H.Q.i 6 u 7 8 9 u 7 u ",
"R K K D J R D S S E a o R U X P.E.S a K.D.D.F.' 6.N.M.@.;.:.-.} [ 5 5 5 5 , , , W W 1.4.1.......5.X.O.o.o.o.o.0.0.q.v.e.n Z.Z.H.Q.S.9 9 6 8 8 9 9 8 i ",
"R L D D L R L D I O S S U S X D.a.> S e.H.J.F.S.e.U.E.V.n.+.X.~ ! ) / ) ) ) ` 8.4.4.....| ..o.X.X.o.o.o.7.0.k.k.x.v.c.' ' H.H.Y.Q.b 9 9 9 . u 8 9 7 c ",
"K K D K R K L R I o a.U E a O U > S P.I e.D.S.S.e.e.r.E.ZXB.x.k.q.z.q.5.9.4.4.4.4.5.X.5.X.5.X.o.+.o.+.k.z.z.z.x.x.c.e.' C.Z.Y.Q.S.  9 u 6 . 9 8 8 7 i "
};
