/* XPM */
static char *_521759456747[] = {
/* columns rows colors chars-per-pixel */
"75 75 256 2 ",
"   c #060203",
".  c #0B0203",
"X  c #04040C",
"o  c #0A060B",
"O  c #0B0A0D",
"+  c #07080D",
"@  c #130303",
"#  c #140A0D",
"$  c #1B0B0B",
"%  c #1A0505",
"&  c #060712",
"*  c #060914",
"=  c #0B0B14",
"-  c #0C0D19",
";  c #080612",
":  c #130E13",
">  c #150E17",
",  c #0E101C",
"<  c #131115",
"1  c #13121C",
"2  c #1B1418",
"3  c #19120E",
"4  c #250807",
"5  c #350204",
"6  c #36020A",
"7  c #3D020C",
"8  c #3A0705",
"9  c #28120C",
"0  c #35150C",
"q  c #281816",
"w  c #381A15",
"e  c #310A12",
"r  c #38231D",
"t  c #2E221E",
"y  c #1B1B24",
"u  c #181A26",
"i  c #231E24",
"p  c #3F1F20",
"a  c #29252A",
"s  c #372825",
"d  c #322E34",
"f  c #39363A",
"g  c #302D30",
"h  c #1F212D",
"j  c #42040D",
"k  c #470703",
"l  c #570804",
"z  c #481409",
"x  c #571405",
"c  c #440511",
"v  c #4C0512",
"b  c #4A0C15",
"n  c #470B15",
"m  c #530414",
"M  c #5A0515",
"N  c #590B17",
"B  c #4B1619",
"V  c #52141C",
"C  c #5A1619",
"Z  c #6B0105",
"A  c #670607",
"S  c #73040A",
"D  c #66140B",
"F  c #670919",
"G  c #770A18",
"H  c #671817",
"J  c #761815",
"K  c #74150E",
"L  c #48261A",
"P  c #56291B",
"I  c #523210",
"U  c #662517",
"Y  c #782719",
"T  c #702D0B",
"R  c #5A1B23",
"E  c #651B23",
"W  c #7A0D21",
"Q  c #472B24",
"!  c #592726",
"~  c #4A332A",
"^  c #58362B",
"/  c #4A3934",
"(  c #573C33",
")  c #5A2C32",
"_  c #672629",
"`  c #782A28",
"'  c #66382A",
"]  c #753829",
"[  c #752D32",
"{  c #663D33",
"}  c #783838",
"|  c #682C32",
" . c #5C443A",
".. c #5A4237",
"X. c #4A423B",
"o. c #63453B",
"O. c #64493E",
"+. c #6C4A3C",
"@. c #694437",
"#. c #734B3C",
"$. c #774739",
"%. c #6E4936",
"&. c #634B1F",
"*. c #433E44",
"=. c #4A454A",
"-. c #574C4A",
";. c #644C42",
":. c #6B4D42",
">. c #644B46",
",. c #754C42",
"<. c #7A4E43",
"1. c #794442",
"2. c #6D5146",
"3. c #6B5349",
"4. c #735144",
"5. c #7B5345",
"6. c #74554A",
"7. c #7B554A",
"8. c #7C5A4C",
"9. c #77594C",
"0. c #7C5D51",
"q. c #765955",
"w. c #6E5751",
"e. c #776258",
"r. c #7C6F64",
"t. c #3F3A40",
"y. c #861919",
"u. c #971C19",
"i. c #820C15",
"p. c #89251C",
"a. c #96231E",
"s. c #953716",
"d. c #8C3718",
"f. c #AD221F",
"g. c #890A23",
"h. c #881C23",
"j. c #971D27",
"k. c #970B26",
"l. c #AD0F2C",
"z. c #8A2526",
"x. c #992528",
"c. c #863529",
"v. c #963626",
"b. c #853836",
"n. c #932E35",
"m. c #A72626",
"M. c #B82927",
"N. c #A52732",
"B. c #A42934",
"V. c #A72834",
"C. c #B03631",
"Z. c #A61F1C",
"A. c #C62A27",
"S. c #C73635",
"D. c #C71336",
"F. c #874738",
"G. c #8F4C30",
"H. c #AA4A35",
"J. c #B77531",
"K. c #9F6117",
"L. c #923B43",
"P. c #AA3B46",
"I. c #884747",
"U. c #845B4D",
"Y. c #8B5C4C",
"T. c #845446",
"R. c #965A48",
"E. c #835E52",
"W. c #8C5B54",
"Q. c #965958",
"!. c #97494A",
"~. c #AD4F4F",
"^. c #846254",
"/. c #8B6454",
"(. c #8B6659",
"). c #8D695B",
"_. c #886759",
"`. c #936453",
"'. c #926C5C",
"]. c #9B6C5B",
"[. c #986658",
"{. c #99715F",
"}. c #9A654A",
"|. c #A56958",
" X c #A3715E",
".X c #B06952",
"XX c #B65C64",
"oX c #8B6A62",
"OX c #976B62",
"+X c #9C7363",
"@X c #9A7567",
"#X c #917A6E",
"$X c #A37564",
"%X c #A57B6B",
"&X c #AB7D6A",
"*X c #A87767",
"=X c #B67A67",
"-X c #B0726F",
";X c #CE6E56",
":X c #C95C66",
">X c #D76B78",
",X c #C9767C",
"<X c #D6737B",
"1X c #CA6F6B",
"2X c #E57279",
"3X c #CE554D",
"4X c #CB403D",
"5X c #BA802F",
"6X c #CB9636",
"7X c #AB816E",
"8X c #B8836D",
"9X c #AE8473",
"0X c #B48673",
"qX c #BB8B75",
"wX c #B98976",
"eX c #BC917B",
"rX c #AB836A",
"tX c #C58B75",
"yX c #C5937D",
"uX c #CA947C",
"iX c #D08C71",
"pX c #EC9577",
"aX c #E0A858",
"sX c #F7CD57",
"dX c #F8CE70",
"fX c #D67984",
"gX c #C97884",
"hX c #E37681",
"jX c #AA7D80",
"kX c #B99187",
"lX c #9C8A80",
"zX c #CC9A83",
"xX c #C79784",
"cX c #D39C84",
"vX c #D99E88",
"bX c #D18B8F",
"nX c #F1958F",
"mX c #D4A38B",
"MX c #DAA38A",
"NX c #DAA994",
"BX c #CDA18A",
"VX c #E5A78D",
"CX c #E8AD94",
"ZX c #EAB39B",
"AX c #F2B59B",
"SX c #E9B7A3",
"DX c #F5BBA3",
"FX c #F7BBA5",
"GX c #E7A7AA",
"HX c #DBA1A3",
"JX c #F9C4AB",
"KX c #FBCCB4",
"LX c #F9CAB6",
"PX c #FCD2BA",
"IX c #EBC4B0",
"UX c #FCD8C4",
/* pixels */
"D.D.l.l.l.k.g.g.W F F M M v m v c c 7 6 6 6 6 6 6 6 6 6 6 6 6 6 6 5 6 6 6 6 6 8 6 6 6 6 7 7 7 7 7 7 7 7 7 7 c c 7 7 7 7 j j j j c c v c v b v m N N V ",
"D.l.l.l.k.g.g.g.W F F M M v v c n 7 7 6 7 6 6 6 6 6 6 e 5 5 6 6 6 6 5 5 6 6 8 6 6 5 6 6 7 6 7 7 7 j j 7 j 7 7 7 7 c c 7 j j j j c c n v v v v b N N V ",
"l.l.l.k.g.g.W W F F F M m v v c c 7 7 7 e e 7 e 6 6 6 6 6 6 5 8 5 5 5 5 5 5 6 5 5 5 5 8 8 5 j j 7 7 7 7 7 c 7 7 7 c c c 7 j j j n n n b c b b N N N R ",
"l.l.k.k.g.W G F F M M m m c v c 7 7 7 7 7 7 7 7 6 7 6 7 8 k 8 8 5 8 8 8 8 8 z k k k 8 k 8 8 8 8 8 j 7 j 7 c 7 7 7 n 7 7 7 7 7 j n n b n b b b V V V N ",
"l.k.g.g.g.G F F F M m m v v j c j c 7 7 7 j j k j j k k k x U $.G.G.}.}.}.J.`.R.G.F.F.$.' P P z k 8 j j j j 7 c c j j 7 7 7 j c n n n b b b V b V R R ",
"l.k.g.g.G F F F M m m m v v v j j j c c j k k k k x Y G..XtXiXpXpXiX8X;X.X.X.X}.}.R.R.R.R.R.R.T.F.] P z 8 k k j c j j 7 j 7 7 j n n b b B b B V V N E ",
"k.g.g.W G F F M M m m v v v v c v v v k l k x ] }.;XpXpXpXiX3XH.H.s.a.p.z.y.y.y.p.Y J z.z.` c.F.R.R.Q.R.] C 8 k j j j c j j c c n n b b b V V R R E E ",
"g.g.G G F F F M M m m m v v v v v m l l Y ~.iXpXpXpXiXH.v.s.a.a.y.y.y.G J G K D F G H H D H D D H U F.G.}.R.$.C 8 k j 7 j 7 7 n n n B B V V V R R E _ ",
"W W W F F F M M M m m v m m v N x l Y .XiXpXpX;X3XC.B.x.h.h.h.z.n.!.!.!.!.!.I.L.} [ ` E H N N C F D N H ` G.|.R.] k j v j j j b b B B V V V R R E _ [ ",
"W W W F F M M M M m m m M m M m K H.iXpXpX;XH.C.v.u.h.B.~.<XnXGXvXbXbX=X-X$X%XOX*XOX|.OXQ.W.L.| R C N N C C Y R.=XR.z v j j j b B b b V V R R R _ _ [ ",
"W W W F F N M N m m M M F M l Y ;XpXpX3XS.f.a.x.z.~.bXGXGX-X`.#.%.@.$.$.:.#.$.+.@.{ { { +.<._.).OXQ.1._ C C H H ] .XXXl k k c b V V V V R ! R _ _ ` ` ",
"W F E F N N N M M m M M l l v.pXpX;XH.m.Z.a.x.XXGXGX&X@.B %.#XkXNXSXZXNXNXBXBXzXkXwX%XOXU.+.( ^ @.7.oX*X|.I.H C D ` =X|.v v b b B B R R R R ) E _ c.v.",
"W F R M N N N N m M M A A H.pXpX4Xm.m.j.z.XXGXHXq.w % 0 7XIXUXPXLXFXFXZXZXNXmXmXMXNXmXBXBXeX9XrX^.#.{ { 7.$X-XI.U D Y ,XF.l m N V V ! R R _ _ _ z.b.v.",
"E F R F N M V F N M F A H.nX;XS.M.l.x.XXHXHXw.4 . @ s xXUXPXPXIXFXFXDXSXSXCXVXvXuXMXmXMXBXBXxXBXkXeX7X_.%.( :.-X-XI.D b.iXH m V V R C ! _ E _ ` c.v.s.",
"E F F R N R V N F F Z H.nX3XM.M.k.L.fXHXE.q . . @ r kXUXPXPXKXKXLXFXSXDXZXCXNXNXmXMXMXMXmXmXmXuXxXeXwX0X&X`.+.^ 5.kX-XH XXR.l N C R R E _ _ ` c.v.s.s.",
"E E R R V N R N N A u.pX;Xm.N.N.XXHXjXQ .     . 9 #XUXPXPXPXKXKXLXSXSXSXSXCXNXvXuXuXuXuXuXmXmXBXyXtXqX0XwX0X*X).@.' -X=XF.1XH C R ! _ _ _ [ c.b.v.s.a.",
"[ E E R V R R N F M ;X2Xf.l.j.,XHXq.$ .       . ..IXPXKXPXPXKXIXcXyXeX9XmXSXNXMXMXuXuXuXuXuXuXBXyXtXqXqXqXqXqX0X+X5.^ *X=X-Xb.C E _ _ | [ [ b.` s.s.s.",
"[ [ _ R R R R E F z.2XS.m.N.fXbX) o .         9 eXPXIXPXPXKXZX X@.I L L ' 7XNXMXMXuXBXBXmXBXBXuXyXyXyXqXqXtX8X8X7X+X#.^ &X-XF.H _ _ | | [ b.U l d.d.d.",
"[ [ | ) R R R E M P.:XV.j.fXbXs o .       o .  .SXKXKXKXKXNX}.&.F.#.^ z 9 L +XBXuXuXuXBXuXuXzXBXzXyXyXqXqXqX8XqXqX7X'.^ 6.-XF.E _ _ [ [ b.` k l D T v.",
"F b.L._ | ) _ E W P.4Xj.fXjXp . X X X X X . % _.JXKXKXKXZXrX}.eXwX9X%X^.L 0 L +XxXuXuXBXeXrXyXyXyXyXyXtXqXqXqX8X8X7X{.8.) @X} _ | [ [ b.XXF.H x k D ] ",
"l L.XXL.} | | | W P.L.:XbXr @ . . X ; X o # 9 oXSXJXKXJXmXBXNXyXwX9X&X%X).L 9 I @XeXeXyXeX XeXeXeXBXuXyXtXqXqXqX0X&X$XoX{ OX} | [ [ n.XX<X1X.Xl x l x ",
"Z P.fX:X!.} [ [ h.n.P.fX) % . o X X ; ; = # w @XZXJXJXDXCXNXyX7XY.Y.U.E.)._.L 9 ^ 7XBXeX0X XeXqXqXmXBXeXqX0X8X8X&X*X-X@X,.(.I.[ } L.XX<X1X<X.Xl l x x ",
"Z W L.>XgXXXL.1.L.[ gXQ.$ . o O X ; ; ; 1 # Q wXJXJXJXZXMXzX7X{.+X'.8.7.4.6.o.w % &.).'./.].yX7XqXNXBXqX&X X X{.*X%X%X%XW.(.I.[ !.:X2X>X2X~.p.l l D z.",
"K A G XX:XgX,XXXL.!.jXQ % O y : ; = - > 1 > ( xXJXJXAXNXMXyX X/.4.~ r Q ..o. .Q r 0 0 L ' `.yX XeXNXkX7X{.$X@X%XOX8.{ oX@XW.!.Q.>X<X>X>X:Xp.Z Z S z.n.",
"y.A A Z ~.fX>XfXXXgXoX$ 2 g f O - = - 1 1 $ :.NXLXJXCXMXuXqX#.e.w.-.X.f X.X.O.X.L s L P U.0X8X[.%XwX'.OX@X@X{.%.Q 0 4 w /.Q.XX,X>X>XhX:XS S S S x.x.B.",
"x.p.A A J P.>X<X<XbX>.t f -.f < , , - 2 q % 7.SXLXDXCXuX8X[.'.NXr.w.f e.rXr...&.^ @.+.`.xXyX&X].Y.%.( &...~ r 9 9 L ^ L L |.,X>X>X<X~.j.S Z G x.B.B.N.",
"v.s.K D l A XX1XgXjX .*.*.=.t.h y 1 u g *.q OXJXKXJXAXMXtX=X&X%X9...t r.r.7Xe.Q ~ #.+X8XzXzX=X X`.@.^ r 0 9 0 s ( 0.oXoX( { XX<X>X:Xh.Z S G g.V.N.B.N.",
"s.s.s.T l l l !.gXQ.) s h =.=.d a i a *.s s xXLXJXJXJXAXZXNXqX{._.e.9.O.O.#.4.P P Y.qXcXZXAXyX]./.#...~ s r s s ( O.6.OX^.! L.fX:XS A S S x.V.V.N.N.N.",
"s.s.s.d.T x x U 1. .t > a -.=.=.f d f a 4 2.SXLXJXJXJXDXAXCXMXqX+XY.#.+.+.%.%.%.T.&XcXCXJXAXcX]./.4.^ s s f t s  .r @.E.#X( V Q.h.Z S G j.j.N.N.N.N.N.",
"s.s.s.s.d.T z 8 e p i 1 t.-.=.=.=.=.d 3 w 9XLXJXJXAXAXZXVXMXMXBXuXwX*X].'.`.`.*XxXCXDXDXJXAXuX|./.@.Q X.X.f s X.lX_.Q 6.%XQ 5 _ l Z Z i.V.N.N.N.N.N.B.",
"s.s.s.s.] x z z w q 1 i =.-.=.=.=.f 1 @ ..NXIXJXJXAXVXMXuXpXuXuXyXyXyXyXyXtXtXuXvXCXAXFXJXAXcX XY.+.L r r 3 t ..lXBX( +.7X0 % b H A Z i.V.m.N.N.N.V.V.",
"s.s.s.T x x z ^ q 2 > d -.=.-.=.d a < $ _.ZXFXFXAXAXVXpXuXuXuXtXtX8XtXuXuXuXtXtXiXvXAXAXJXAXcX*X`.7...( ~ ~ s X.oX#X0.@Xr.% @ | ~.A Z S G B.B.N.N.V.B.",
"s.d.T D l z } ~ > 1 h *.=.=.=.*.g i 3 q rXCXAXAXAXAXCXpXuXuXtX1X8X8XtX=XtX=X8X=XiXvXCXAXFXFXvX*XQ.U.,.+.o.;.:.+.4.E.7.#Xw.@ @ Q -Xn.G A Z y.x.B.B.N.B.",
"G.d.x x x ! %Xw # u d =.=.=.=.t.g 2 @ s rXVXCXAXCXAXCXVXpXiXiXtX1X=X=X=X.X=X=X=X=XuXCXDXDXAXvX X].`.<.,.#.4.5.8.).OX@X9X>.. . e -XfXn.A A Z i.B.N.N.B.",
"Y x x k ] =X<.4 2 a f *.*.=.*.d a 3 @ ~ 9XmXCXCXCXAXCXVXuXiXiX=X8X=X X X|.|.R.R. X=XbXZXFXZXcX X].[.T.,.,.,.<.7.8.Y.'.7Xw.@ . % Q.gX:X~.A l S S x.B.B.",
"x x x ] .X0XQ $ i d t.t.*.*./ d a < @ X.9XmXVXCXAXVXVXVXuXtX8X=X X.X X].Q.T.<.tXcX1XtXvXAXFXvX*X`.`.T.$.,.<.<.5.5.U./.oX0.% # 4 Q.fXfX:Xn.K l A g.z.B.",
"x x T =XtXW.4 i d a h d t.*.f a y 3 % ..qXuXCXCXVXAXVXpXiXtX8X=X X|.`./.5.' -XFXVXxXtXxXCXAXmX-X`./.U.<.<.<.5.5.<.5.U.^.oXw $ 9 I.gXfX>X<Xn.Z Z l G n.",
"k $..X=X=XL q f f y u g g *.a a 2 i % ..eXuXMXVXVXVXMXpXiX8X=X X|.`.Y.F.%.] wXxX*X8XcXvXCXSXmXwXR.5.,.<.,.<.,.,.<.5.5.Y.OX/ # e L.fXfX>X>X>X~.A A A F ",
"k F.iXiX1.$ d d a 1 1 y a g a i a t 9 +.eXuXuXVXVXVXMXuXtX8X=X X[.R.Y.$.T.[.*XF.z z T.cXGXSXmXkXOX,.{ #.,.,.<.<.#.5.Y.Y.OX .$ 4 [ fX>X2X>X2X:XS S Z A ",
"x ] |.}.w s a i y u - 1 u a q i g t 9 8.yXuXuXMXVXMXMXuXtX8X X|.`.Y.$.Y.=XyX=XQ.F.' P ] zXHXxX&XOX(.E.+.+.,.,.,.5.T.W./.+X;.$ e [ fX>X>X>X:XP.S Z K h.",
"z k B L t a 1 1 1 1 , , 1 > i g g 3 r ).wXyXuXMXMXcXuXtXtX8X7X XY.5.`.8XeXyXyXqX8X&X*XR.*XxXOXU.E.8.q.^.:.1.<.<.T.T.`.`.$X;.$ 4 | gXfX>XhXj.Z S S i.B.",
"P z 0 q a : , 1 - - - , - - a g a t ~ @X9XeXuXuXcXMXcXuXqX8X XR.$.`.wXeXqXeXqXqX0X&X-X XR.5.! L ( 0 4 ) :.+.,.<.T.Y.W.`.@X^ > $ ) -XhX:Xh.G S S j.N.n.",
"' z 9 i < > > , & - - - ; ; u i a t ..@XrXqXuXuXzXzXyXtX8X*XY.%.^.7X9X9X9XqXqX7X9X*X*X XT.P L ^ ' Q L { $.{ <.<.T.Y.`.].OXQ $ 4 ! gXXXP.S S G u.N.B.B.",
"%.9 q < - , - ; ; - - = ; * - 2 q q +.rX7XqXeXuXzXuXqX0X&X[.$.5.7X9X7X%X{.7X7X7X$X$X$X+X/.5.%.+.:.:.6.6.,.1.<.<.T.R.[.$X(.q $ $ V ,Xn.Z S S i.V.N.B.B.",
"9 % : > 1 - + ; * * - & * = * < 3 w 3.rXrXrX8XqXeXqX0X8X XY.%.).+X#.7XkX9X7X7X{.+X].'.OX_.5.7.7.:.,.6.7.7.,.<.5.Y.`.].%Xq.$ # 9 z [ G S S j.N.N.N.N.B.",
"$ : = > = ; * ; & - * * = & * = 3 s e.{.{.rX7X8X0X0X0X*X{.T.%.).9X#.I #.7XeXwX9X%XOX'.OX_.4.4.^.,.:.2.7.7.7.7.T./.[.|.%X( % 3 2 8 v A S g.j.N.N.N.N.N.",
"1 > , = ; ; ; * * - * * * & - + 3 ~ 0.'.{.7X7XrX0X0X%X{.`.8.#.{.xXNX'.' %.Y.@X9X7X9X&X%X).4.8._.5.>.:.,.6.6.7.Y.`.].].@Xr @ > 9 6 N A h.V.V.N.N.V.N.B.",
", - = ; * ; + = - = * * & * * X 3  .e.).{.{.$X X&X&X+X{./.7.#.+XBXNXZXxX X$.$.#.T./.].OXOX/.)./.,.:.>.w.2.4.7.U.[.].+XoX9 # > 2 0 m M J B.B.V.V.V.N.N.",
", , = ; - ; - , - * * & * * - ; q >.0.).@X{.{.$X%X+X{.).E.,.7.+XyXNXSXSXNXeX{.F.' @.] @.@.,.8.E.E.6.4.2.2.+.4.8./.[.@X6.. < < 3 e z l S y.x.V.V.V.V.B.",
": ; ; = - - , - - * * * * * - ; q >.0.).).OX'.+X{.{.'.(.8.4.U.%XyXNXZXZXZXNXuX7X`.T.' P P L P ' ,.E.E.E.9.6.2.#.U.`.@X .. # # 2 9 B C l A z.v.B.N.m.B.",
"- ; - - - , - , * - - - - - - o q >.q._.).'.{.@X{.@X'./.0.U./.%XeXNXNXNXNXMXuXtX=X X/.<.@.' ! ^ P ! { 4.O.@.+.+.5.^.oX~ . O < 3 0 OX_ k x l J n.v.x.x.",
"1 1 > - u , , , - - - * ; - = o s ;.9._._.).'.{.'.).OX/.E.E.(.$XeXBXNXNXNXuXtXrX X].`.Q.W.U.U.,.@.' ~ ! L ^ +.@.4.Y.oXr   O < # % U.}.G.x k D Y x.v.B.",
"a a h h h i u u u , u , 1 - ; # s ;.6.E._._.).'.'.'.'.)._.^.).$XeXeXBXmXBXeX8X].`.Y.8.#.#.,.U.E.E.U.U.Y./.).6.o.+.8.r.r   O < # @ ^ tX.XU x x l p.v.v.",
"h h h h h u h u u u u u u u 1 : s  .6.0._./.).].'.'.'.'.)._.).+XrXeXyXeXeX8XrX].[.U.5.+.o.@.@.,.5.E.{. X{.'.6.&.+.9.q.r   o O O @ 0 8X=X=XT k x x Y n.",
"u 1 u y u , 1 u u u h u u y y 2 t ..6.8.0.E.).).'.'.oXoX'.).(.+XrXeXeXeXqX9X%X[./.U.4.O.o.o.@.+.#.7./.'.{._.#. .+.6.w.s . O O O # @ T.iXiXH.] x l D y.",
"- 1 1 - , , - - u , 1 u u y i i t / :.6.0.^._._._.oX'.'.).).'.'.rXrXrXeX7X7X{.).^.8.4.+.o.o.O.O.+.5.8.)./.U.#.o.+.3.w.s   o O O O . I tX.XiX.Xx l l A ",
"* - - - - - - - * - - - , 1 1 2 t / ;.3.9.8.^.^.0._.)._.'.)./.'.).rXrXrXrXrX'.'./.8.4.O.o.o.O.O.+.#.9./.Y.8.$.{ +.2.3.s     O O O # 4 `.tX;X}.l A D i.",
", - * - - - * = * - , * = : < O 3 ~ ;.3.6.0.9.9.0.^.e.).).{././.r._.{.{.).).)._.E.5.4.+.O.O.O.O.O.+.#.#.4.$.] ' { #.>.s     O : O # @ L tX$.x x l K v.",
"- - * * - * - * = O * : : * = O # s -.2.6.2.6.9.8.9.0._._._././././.{.{.'.).^.8.7.#.@...^ ^ o.o.O.....^ ' ] b.z.H ' o.s     O O O 3 # 4 %.P k x K d.J.",
"* - - * & * * = > - - = = = : O 2 3 ~ ;.2.2.2.2.9.9.9.r.).'./.).'.'.{.{.{.{.{.'.'.)._._.:...^ Q ~ ~ ~ P x ` v.p.J B ) r     + O O O < # 4 k x D p.K.aX",
"* * - - - * - O < 1 , : O O = : < o 9 -.3.3.3.;.3.9.e.9.0.).)._.).'.'.'.'.{.'.'.)././.^.^.0.:.( L w w z D z.z.y.D b ) w     + O < O < 3 4 8 U c.T J.aX",
"* * * & * = , : < < < 1 < = = < O o . q  .;.;.O.+.w.6.9.8.8.0._._.'.).'.).'.)._.^.U.8.8.6.9.:.O...w 0 k J z.y.K l z ! q .     O O < < < 3 4 ] v.K.aXaX",
"+ & & & ; + * * - = - < = * O O O O   9 ~ ..O.O.O.;.+.3.9.9.9.0.0.^.^.^._.).^.9.7.6.5.6.4.:.:.O.( B 8 A a.u.y.D k b ~ 9 . o + o O < < 2 3 4 ] K.aXsXsX",
"& & X X X + o + O o + + X X + + O O   q X.~ /  .O.O.O.O.4.3.3.+.9.8.8.0.0.0.6.2.2.:.:.+.o...+.@.! x K p.a.a.p.A l C ^ 4 @ . . + O O < < 2 4 D K.6XsXsX",
"* + X & X X X X   X X X X X X O O O . s  .X.~ ~ ......o.O.2.+.3.6.3.9.9.6.3.;.O. . . .( ( / ) ' H K a.f.f.a.p.K A H P 6 4 % . o ; : < < 1 $ k G.K.sXsX",
"* o ; X X X X X X X X X X X   X +   . / O...~ X.~ ~ ....O.O.2.3.6.3.2.2.2.O. .( ..( ~ ~ ~ Q P H J m.C.M.f.a.u.y.y.K H H B B $ o O O < < < 9 8 U J.dXK.",
"* o X X X X X X X X X X X X X X X   3 >.3...~ ~ X./ ..X. . .O.+.6.6.2.:. . .( / ~ Q Q Q z z A i.m.M.M.M.Z.u.y.u.y.J J U _ ! e . o O : < < $ 8 G.5X5X5X",
"2 > # + X X X X X   X X X X X X     t >.3.O.X.~ r &.( ....^ @.' | { $.#.:.( / ~ s s w 0 8 l y.Z.M.M.M.f.u.u.u.u.a.y.y.J H ! 4 @ o O = < 2 % 0 G.pXJ.6X",
"e e > > o ; X X X X X X X X X X X . / ;.3.3...~ ~ ~ ^ ( ' ' ` ` J H H C B 0 0 9 9 4 5 8 l i.Z.A.M.M.f.f.Z.u.u.u.a.p.y.J H R 4 @ + < < < 2 % z .XK.J.sX",
") c e 4 # # + X X o + + X ; X X   3 ;.;. .3. .~ Q ~ ^ ^ ] F.~.H.!.H.p.D l k 5 4 5 8 l S u.M.A.A.f.M.f.Z.u.u.u.u.u.p.Y K H H 8 @ o O < 3 9 % $.G.K.aXaX",
"F m N 1.B @ # = o o * o o X X # . d 3.O. .O.3...~ s ~ ' b.!.C.v.C.B.C.C.m.y.K S A J j.M.A.A.A.f.A.f.Z.Z.u.u.y.i.y.J J K K H P B @ 3 3 3 O r aXx T J.5X",
"S G n.,X-X) 4 $ 2 # o o ; # = # 2  .O.o...o.O.O.^ ~ ~ _ b.c.J K y.u.m.M.M.M.C.C.C.M.S.A.A.A.A.A.f.Z.Z.Z.u.u.y.y.J K J Y J H _ B % 3 3 3 &.aXAX6XT T 5X",
"Z P.hX>XgXgXQ.R $ # # # o @ # @ ~ ;.o.( ^ ..o.@.&.^ @.' ' l k k k A y.m.S.4X4X4X4XA.A.A.A.A.A.M.A.f.Z.a.u.y.y.J J K K J J _ U C 4 4 4 I dXdXsXdXaXJ.dX",
"Z P.2X>X>X>XfXgXQ.R 4 4 % % % w O.+.@.&...^ @.#.4.#.#.#.$.' ! P _ ` K p.M.C.S.S.A.A.A.A.A.A.A.M.M.f.f.a.p.p.y.K K K H J J J H C k ^ }.8XaXsXsXaXK.I x ",
"A h.P.>X>X>X>X,XgX,XQ.!.$.B ! OX@X'./.8.#.#.,.U.'.'.`.Y.T.W.T.T.Q.-X.XG.a.m.M.C.S.M.A.A.A.A.M.M.C.f.a.a.p.J J K J H J J J H H C ` =XtXiXaX6XaXdXaXT G."
};
