/* XPM */
static char *_521759464093[] = {
/* columns rows colors chars-per-pixel */
"40 40 241 2 ",
"   c #0B0203",
".  c #04040B",
"X  c #0B050B",
"o  c #0B090D",
"O  c #060001",
"+  c #130203",
"@  c #1C0100",
"#  c #13090B",
"$  c #1C0C0D",
"%  c #190609",
"&  c #070711",
"*  c #070914",
"=  c #0B0B14",
"-  c #0C0D1A",
";  c #080713",
":  c #130D13",
">  c #1C0E12",
",  c #141115",
"<  c #12111B",
"1  c #1C1417",
"2  c #220303",
"3  c #280805",
"4  c #3C0102",
"5  c #350309",
"6  c #3D020B",
"7  c #360502",
"8  c #291816",
"9  c #361A17",
"0  c #2D100E",
"q  c #38221B",
"w  c #1A1B25",
"e  c #181724",
"r  c #251E24",
"t  c #3F1A22",
"y  c #29242A",
"u  c #372826",
"i  c #3C373E",
"p  c #382E32",
"a  c #4B0B03",
"s  c #42040D",
"d  c #480407",
"f  c #5C0C0B",
"g  c #580706",
"h  c #481407",
"j  c #561409",
"k  c #4A0A14",
"l  c #490713",
"z  c #540414",
"x  c #5B0616",
"c  c #590C18",
"v  c #4D1119",
"b  c #471915",
"n  c #5B141E",
"m  c #571719",
"M  c #6A0005",
"N  c #680605",
"B  c #73040A",
"V  c #681C0A",
"C  c #670719",
"Z  c #77061D",
"A  c #681618",
"S  c #781917",
"D  c #47251A",
"F  c #522917",
"G  c #67241B",
"H  c #772A1B",
"J  c #6E2907",
"K  c #5A1C23",
"L  c #780B21",
"P  c #641D25",
"I  c #7B1B21",
"U  c #482B25",
"Y  c #592B24",
"T  c #4A342B",
"R  c #47332C",
"E  c #5B352A",
"W  c #573429",
"Q  c #493A36",
"!  c #573C34",
"~  c #692728",
"^  c #782728",
"/  c #67392C",
"(  c #753528",
")  c #683D34",
"_  c #783835",
"`  c #792D34",
"'  c #7C4109",
"]  c #5A4339",
"[  c #64453A",
"{  c #6D4B3F",
"}  c #664538",
"|  c #72493E",
" . c #794637",
".. c #3F3D40",
"X. c #443F45",
"o. c #723D42",
"O. c #48444A",
"+. c #564B4C",
"@. c #644D44",
"#. c #6C4C41",
"$. c #6A4947",
"%. c #744D43",
"&. c #7A4B43",
"*. c #6D5146",
"=. c #69534C",
"-. c #745245",
";. c #7B5345",
":. c #73554A",
">. c #7A544A",
",. c #7C5A4C",
"<. c #76594D",
"1. c #7D5D51",
"2. c #765D56",
"3. c #7D6358",
"4. c #881A1A",
"5. c #941B19",
"6. c #82081F",
"7. c #88251C",
"8. c #93391B",
"9. c #922F1F",
"0. c #A5211E",
"q. c #8B0B24",
"w. c #980C27",
"e. c #8A1D23",
"r. c #921D25",
"t. c #AF112E",
"y. c #892727",
"u. c #98262B",
"i. c #893729",
"p. c #97352B",
"a. c #9C2D32",
"s. c #9A3938",
"d. c #883435",
"f. c #A82825",
"g. c #B72A27",
"h. c #A52632",
"j. c #A32A34",
"k. c #B53634",
"l. c #C13332",
"z. c #C42A28",
"x. c #8C443C",
"c. c #83493C",
"v. c #96483A",
"b. c #B4413E",
"n. c #A97035",
"m. c #8B5A29",
"M. c #8D3C43",
"N. c #874944",
"B. c #954847",
"V. c #845545",
"C. c #85554A",
"Z. c #845B4C",
"A. c #89594A",
"S. c #95564C",
"D. c #825D52",
"F. c #895854",
"G. c #995C54",
"H. c #924E53",
"J. c #A85A4B",
"K. c #A85957",
"L. c #BA5856",
"P. c #B24746",
"I. c #846254",
"U. c #8B6659",
"Y. c #8D695B",
"T. c #8B6556",
"R. c #936656",
"E. c #936C5D",
"W. c #9C6D5C",
"Q. c #976657",
"!. c #8F6856",
"~. c #A46B5B",
"^. c #A3745D",
"/. c #B26348",
"(. c #A65F62",
"). c #B95D63",
"_. c #946C62",
"`. c #9B7363",
"'. c #997669",
"]. c #97786C",
"[. c #A96A69",
"{. c #B66668",
"}. c #A37463",
"|. c #AA7C6B",
" X c #A67866",
".X c #B57767",
"XX c #BB787C",
"oX c #AA7571",
"OX c #C1575A",
"+X c #C6656C",
"@X c #C66C73",
"#X c #CA747A",
"$X c #D6727D",
"%X c #D37267",
"&X c #DA6B6E",
"*X c #C48236",
"=X c #AD806E",
"-X c #BC816C",
";X c #B1826D",
":X c #AE8171",
">X c #B38573",
",X c #BB8A76",
"<X c #BC8D79",
"1X c #B48977",
"2X c #BE917C",
"3X c #A1825C",
"4X c #CE8F4C",
"5X c #C48E7A",
"6X c #C78B75",
"7X c #D88376",
"8X c #C4927D",
"9X c #CC927C",
"0X c #D1947B",
"qX c #E3A264",
"wX c #F9CA6F",
"eX c #DA7A84",
"rX c #CF7D89",
"tX c #E17984",
"yX c #B89889",
"uX c #CC9A84",
"iX c #CD9E8A",
"pX c #C89782",
"aX c #D59D88",
"sX c #CE838A",
"dX c #D5A38C",
"fX c #DAA38B",
"gX c #D9A894",
"hX c #DFB09B",
"jX c #CFA493",
"kX c #E4A68C",
"lX c #E4AE9A",
"zX c #E5AB95",
"xX c #EDB49D",
"cX c #E7B29A",
"vX c #F1B49A",
"bX c #E9B5A2",
"nX c #F6BEA7",
"mX c #FACBB4",
"MX c #F5C9B4",
"NX c #FFD98A",
"BX c #FFDDCA",
/* pixels */
"t.t.w.q.Z C x l l 6 6 5 5 5 7 5 5 5 5 6 7 7 6 6 6 6 6 6 6 6 s s l 6 l l k k z c ",
"t.t.q.Z C C z d s s 6 6 6 5 4 4 7 7 7 4 4 4 4 4 4 6 4 4 s 6 s s 6 6 l k k k c c ",
"w.q.Z C x z z l s s 6 d 4 d j H v.J.J.J.S.v.x._ / G b a 4 s s 6 6 6 l v k v v K ",
"q.q.Z C x z z d l d d V x..X7X.X/.v.i.i.H H ( ( ( c.N.N.~ d 6 s 6 6 k v v v K P ",
"Z Z C C z z z z a V /.7X%XP.p.d.x.x.x.c. ._ ( ~ K j m ~ N.S.G d s s k v v K P ~ ",
"S C C x x z z g b.7X%Xv.p.J.@X{.{.oX[.~.Q.G.C.N.N.N.d.~ m G G.( d l v v K A ~ ` ",
"A C c c z x g L.$Xk.y.K.yXN.W =XlXbXxXgXaXuXpX>X`.A.C.C.F._ G G.^ d v K K ~ ^ i.",
"P n c c C N OX%Xr.B.XXH.3 @ yXBXmXMXMXxXzXaXaXgXjXiX,X`.C.C.G.x.S.k m m ~ ~ i.i.",
"P P c n x M.&X4.).[.9     =XBXmXmXhXjXcXcXiX8XiXdX8X2X,X,XW.;.Q.[.( n ~ ~ d.p.8.",
"d.P K P L OXh.+XF.  O O R MXMXMX;X .F F 2XgX8X0XiXuX8X,X,X,X X .[.d.K ~ ` A V i.",
"y.M.P P ` M.{.o.+   X O 1.mXmXuX3X;X`.W D >XuX8X>X8X8X8X,X,X:XZ.>.o.~ ` K.i.a V ",
"I @XH.` I (.F.+ X . o % E.MXMXgX2XW.Y.Y.D F >X;X;X,XdX2X;X:X:X|.H.o.d.).7XL.g f ",
"M y.#X).B.(.0 : = = = 8 1XMXcX8X!.*.T ] [ 9 D }  X;XdX>X X'.:.%._.B.+XtXL.N B u.",
"y.M y.#XrXF.p .., : 1 9 jXmXfX X`.<.] 3.=.W / E.,XW.;.} [ D D D o.XXeXOXZ B u.a.",
"p.7.g ( XX$.p X.y y u Q MXmXcXaX;X,.] 3.#.F }.zXaXE.} D 8 q ] _._ [.).B B u.h.h.",
"8.8.H a Y t y +.X.i $ '.mXnXvXzXdX;X!.,.V.}.fXnXlXW.} T u Q :.*.>.m A B u.h.h.h.",
"8.8.V b 9 $ O.+.O.r 9 jXmXvX0X0X6X6X8X8X6XaXcXnXzX~.} U q ] =X2.! 5 ~ M e.j.h.h.",
"8.J g ) 0 y O.O.i + ] hXvXvXzX0X6X-X-X-X;X-XkXnXzX}.Z.{ { -.I.].U @ (.e.M e.j.a.",
"V h A.| # i O.O.p + } gXvXvXvX0X-X.X^.~.S..X6XxXzX}.F.| -.;.I.].T @ (.@XS M e.a.",
"h c.;X9 y y i i y # { fXkXkX0X6X.X~.G. .[.gX9XzXlX XA.&.;.;.&.U.@.2 H.rX+X4.M e.",
"G 8X[ 8 y < y y r 1 ,.0XfXkX0X,X^.Q.c.V.|. . .aXbX:X;.#.| | ;.!.2.5 N.eX$XOXM B ",
"h / q r < < < y u 8 E.8XdXfX0X,X|.m.R.8X<X~.N.W.>XF.&.&.| &.V.E.2.2 M.eX+X4.B y.",
"D 0 1 - = - - < y q 3X2X0XuX8X;XA.R.2X>X,X>X;XR.Y W b ! | &.C.`.=.% M.@X6.B r.h.",
"9 $ < = * - * o , i 3X>X<X6X,XQ.| W.`.>X=X`.`.!.%.%.%.>.&.;.A.'.! @ ~ ^ M r.h.h.",
": < = ; ; * * o o ] '.=X=X;X XZ.,.=X .I.=X=X X`.,.,.{ :.>.,.Q.'.q 3 s C y.j.h.h.",
"- = ; ; = * * o # [ Y.`. X3X`.;.T.gXhX=XV.;.V.Z.Z.I.-.*.%.,.`.U.$ $ 7 j y.j.j.h.",
"= ; = - - * * o , =.Y.E.`.`.T.,.!.uXcXcX8XW. .E Y / -.:.#.#.Y.*.+ % D m f y.p.j.",
"e < e e - - - ; 1 =.U.Y.E.E.Y.1.E.2XgXdX,X XR.Z.;.{ / ) } #.D.! O # D Q.j N y.p.",
"y y w w w e e < 1 ] 3.!.Y.E.E.T.E.>X8X2X X!.;.} { >.T.`.Y.} <.! O : @ `./.j N 7.",
"- - e - e e w w r ] <.I.Y.Y.Y.Y.E.=X1X1X}.T.:.} } } >.R.F.} >.Q O #   ] 8X/.a V ",
"- - - - * = - , , ] :.<.1.3.Y.E.T.E.3X`.E.I.{ [ [ #.#.;. ._ #.T   #   0 }._ g S ",
"- - * = = = = o o u =.*.:.<.3.Y.T.Y.E.E.!.I.,.{ ! W E Y ( ` Y U O o # + b h V n.",
"* * * - < < : = ,   R =.#.:.<.I.T.Y.E.E.E.T.I.I.:.E b h 7.S b 9   . # , $ F m.qX",
"* & & * ; = = X =   8 ] ] @.*.:.,.1.3.I.3.-.:.{ { } j V y.M f b + X # , $ F *XwX",
"; ; . . . . . . o   R Q T ] ] @.-.:.:.:.{ ] ] E E G 4.a.9.4.A m 3 + o , $ 0 m.wX",
"# X . . . . . . X   ] @.T T ] [ } | %.| ! W D m f 7.g.f.5.7.4.A Y 0   : $ 0 n.*X",
"0 % & & . . . . O , =.{ T T ] / d.^ G m h 7 4 g 5.f.f.0.5.5.4.S P 2 + , $ 9 n.qX",
"v K v   + X X .   Q { } ] D Y c.v.s.p.S f g S f.g.g.0.0.5.4.4.V A v 3 $ 3 m.' 4X",
"I @XXXo.5 + X + 8 ] ] ] } E / G a f 7.b.P.l.b.z.z.g.f.0.5.4.V S G ~ 7 3 n.NX*Xm.",
"q.+XeXrXoXo.u 9 =.3.{ { | Z.A. ._ x.p.f.l.l.z.z.z.g.g.5.4.S S S S j Y ^.qXwX4X' "
};
