/* XPM */
static char *_521758580088[] = {
/* columns rows colors chars-per-pixel */
"40 40 246 2 ",
"   c #151B1E",
".  c #301A0B",
"X  c #1C2315",
"o  c #2A2807",
"O  c #352A05",
"+  c #38350A",
"@  c #2C2A15",
"#  c #26261E",
"$  c #2A261B",
"%  c #2C2A1D",
"&  c #282715",
"*  c #312E1C",
"=  c #342A16",
"-  c #2F3918",
";  c #363315",
":  c #343C15",
">  c #34321C",
",  c #3A341A",
"<  c #3C3A1C",
"1  c #3A3916",
"2  c #2E3908",
"3  c #161B22",
"4  c #191B24",
"5  c #1C1E29",
"6  c #141720",
"7  c #1E212A",
"8  c #1C2226",
"9  c #262621",
"0  c #292721",
"q  c #2B2B22",
"w  c #21232C",
"e  c #272C28",
"r  c #312E22",
"t  c #382B24",
"y  c #2A3427",
"u  c #343223",
"i  c #3A3623",
"p  c #3B3925",
"a  c #3B352A",
"s  c #3C3A2B",
"d  c #343B28",
"f  c #242A33",
"g  c #262935",
"h  c #3A3B36",
"j  c #2B3536",
"k  c #453906",
"l  c #553C03",
"z  c #462919",
"x  c #522E1D",
"c  c #433D12",
"v  c #443C1C",
"b  c #473918",
"n  c #4F2E17",
"m  c #462C23",
"M  c #423D23",
"N  c #443C2B",
"B  c #4A3A2B",
"V  c #473328",
"C  c #533125",
"Z  c #5A3525",
"A  c #5D392C",
"S  c #573827",
"D  c #453B35",
"F  c #5C3F31",
"G  c #522E22",
"H  c #623D2A",
"J  c #643B25",
"K  c #3A410D",
"L  c #35441A",
"P  c #3C451C",
"I  c #3A4A1C",
"U  c #394515",
"Y  c #3E531B",
"T  c #3A4626",
"R  c #3B4539",
"E  c #3E5020",
"W  c #494609",
"Q  c #534401",
"!  c #594A04",
"~  c #595508",
"^  c #45421B",
"/  c #434C1C",
"(  c #484515",
")  c #544A19",
"_  c #44541E",
"`  c #4A561E",
"'  c #4B5A1E",
"]  c #495416",
"[  c #5B541B",
"{  c #5A5A19",
"}  c #664600",
"|  c #685B03",
" . c #735900",
".. c #665A18",
"X. c #775E1B",
"o. c #5E6318",
"O. c #756507",
"+. c #77720D",
"@. c #696418",
"#. c #756A17",
"$. c #77731A",
"%. c #6B690C",
"&. c #434425",
"*. c #4A4525",
"=. c #424E2B",
"-. c #4D4A2B",
";. c #464928",
":. c #554627",
">. c #435221",
",. c #4A5525",
"<. c #455D22",
"1. c #4C5C23",
"2. c #4B542A",
"3. c #49572C",
"4. c #545524",
"5. c #525C24",
"6. c #515C2B",
"7. c #5B5B27",
"8. c #4E4B3C",
"9. c #494736",
"0. c #584837",
"q. c #4A5B36",
"w. c #565834",
"e. c #64422C",
"r. c #6A442D",
"t. c #645723",
"y. c #674937",
"u. c #675B37",
"i. c #75553B",
"p. c #4C6323",
"a. c #4C622A",
"s. c #526224",
"d. c #5B6525",
"f. c #54622C",
"g. c #5B6A2B",
"h. c #576828",
"j. c #5A6C32",
"k. c #566636",
"l. c #4A6635",
"z. c #686627",
"x. c #756A25",
"c. c #797428",
"v. c #696738",
"b. c #786939",
"n. c #313743",
"m. c #384042",
"M. c #444C45",
"N. c #495741",
"B. c #545445",
"V. c #4B5452",
"C. c #555E5D",
"Z. c #635C40",
"A. c #765843",
"S. c #624E43",
"D. c #4F684A",
"F. c #546946",
"G. c #4F6453",
"H. c #576F5A",
"J. c #746742",
"K. c #6B674F",
"L. c #576162",
"P. c #836903",
"I. c #877706",
"U. c #967900",
"Y. c #857816",
"T. c #917B1A",
"R. c #A47F14",
"E. c #867A28",
"W. c #96782D",
"Q. c #8A6F3A",
"!. c #857737",
"~. c #957E30",
"^. c #A47C2A",
"/. c #937B44",
"(. c #827A49",
"). c #8C830E",
"_. c #978606",
"`. c #978717",
"'. c #988D15",
"]. c #A48C04",
"[. c #AA9509",
"{. c #B49B03",
"}. c #B49A08",
"|. c #A08A17",
" X c #A99619",
".X c #B79D17",
"XX c #BCA404",
"oX c #BAA60A",
"OX c #BCA517",
"+X c #968728",
"@X c #8B8435",
"#X c #988A38",
"$X c #918A27",
"%X c #AA9A28",
"&X c #B69B24",
"*X c #A8993B",
"=X c #AF8D34",
"-X c #B7A926",
";X c #B2A634",
":X c #C59E1B",
">X c #C2A905",
",X c #C5A808",
"<X c #C9B308",
"1X c #D4BB05",
"2X c #C5AA17",
"3X c #CBB619",
"4X c #D4B816",
"5X c #D0AD09",
"6X c #C5AE27",
"7X c #C9B628",
"8X c #D7B829",
"9X c #C8A634",
"0X c #D2BA37",
"qX c #CBBC3F",
"wX c #DAC507",
"eX c #DEC31B",
"rX c #DDC415",
"tX c #E3CC0C",
"yX c #E6D30A",
"uX c #E9D20B",
"iX c #EAD60A",
"pX c #E4C91C",
"aX c #EAD414",
"sX c #DBC327",
"dX c #D8C637",
"fX c #CEC039",
"gX c #E6CB27",
"hX c #EDD423",
"jX c #ECDB26",
"kX c #F4DA27",
"lX c #EAD939",
"zX c #F6DA3B",
"xX c #E4C931",
"cX c #F6E33A",
"vX c #968942",
"bX c #948854",
"nX c #A8924A",
"mX c #B6A848",
"MX c #9C8F61",
"NX c #D1B750",
"BX c #DAD24E",
"VX c #E2C942",
"CX c #F1D943",
"ZX c #E7D849",
"AX c #F6E849",
"SX c #F5E254",
/* pixels */
"k #X*X+XX...@.#.E.{ ^ u u r $ u t * 0.-.M , u % u q q y q 9 e 9 0 $ 0 r B *.*.p ",
"k !.#XY.%.x...vXvX..O @ % q & * @ o O + ) 1 ;.> & r % q q 9 q % 0 0 r r ;.> &.p ",
"k !.*XY.+XE...!.!.) b , % @ @ 4.W +.Y.+.$.@.4.L d y q y e # q $ $ X 0 0 r u r * ",
"! b.x.Y.`.$X..W [ v.b.^ < o k #X%X X.X|.).$.d.<.q.q.e # q % @ 8.9.$ = & $ u u q ",
"b.x.! E.*XmX..+ c 4.*.( W | -X6XOX}.}.].).Y.z.' q.H.G.y X % @ w.Z., = w.V $ y u ",
"c ( ..nX+XE.t.+ &.*.^ O | NX3X<X>XoX{.]._.).@.' q.D.H.G.T % , w.4.o u.i.0.N $ u ",
"< 1 k @.#X..c ; > ; + %.qX3X<X,X>XXXXX{._.).z.p.q.G.D.D.k.@ < w.) c bXb 8.8.$ r ",
"i , k !.#Xc.:.* > ; O mXsX<X>X{.XXXXoX}.[.'.E.h.l.D.D.l.q.I @ < ^ /.MX) M K.s $ ",
"i O x.mXx.t.:., * z ..=X X}.oX{.{.,X>X2X&XT.x...6.F.F.l.a.a.- & 1 MXMXu.t.K.t 9 ",
"i k ~.~.Q.) = > + [ O.| I.].[.{.>X,X2X XO.| %.[ ;.=.k.l.p.a.T & < *.b b z = $ q ",
";.b vX^./.w.p O ! +X7XOX_.U..X{.>X6X%X| | E.!.o.` L E q.f.1.T T T > @ & $ % 9 q ",
", k vXQ.) :.u.[ +.fXsX3X-X[.[.2X2X.X%.K ~ x.@.Q P &.L >.a.p.T T u N N q 9 q q 9 ",
"*.*.1 + = , u.#X-X3XoX]._._.[.2X.XY.W @ O W x.) : - d E p.p.>.1.K.1 @ 9 9 0 q 9 ",
"N M * * p v O ~ -XoX.X=XT.O.]..X X| 2 - 1 J.J.4.< y - L <.h.s.s.d.1 @ $ 9 r 0 9 ",
"u > * 9.N * = O  X XT.P...l P.9X.XO.W ; b :.. = p p T P s.g.g.h.,.w.&.i $ 0 q # ",
"r u p N N ; + Q 9XOX+X. O l } 0X7XT.W T b i.z B :.^ ( ) d.g.h.h.,.+ < i q 0 q q ",
"r r r r t + x.;XxX8X9X} l l U.8X.X'.z.6.4.b.Q...Q ! $.$.d.j.g.g.6.: 1 > * q a @ ",
"% % r r ; ) +X0XeX,X:XR.P.R.8X:X}.'.c.j.1.{ x.E.+X*XnX$.o.j.g.h.6.P w.> u * i i ",
"r $ r @ c !.`.VXeX5X5X5X8XxX4X,X}.|.x.k.v.w.7.c.#X*X@Xo.d.g.g.d.f.L i u u u p &.",
"* a t & b.#.P.SXgXrXpX4XpXgX4X5X.X+Xz.k.k.k.4.W ..x.z.7.h.o.g.s.f.: u a u > < N ",
"@ r u $ -.k T.SXzXkX8X].4XsX5X6X&XW.5.2.T &.=.: ^ / 2.4.5.o.p.p.f.L s a > p -.^ ",
"9., = = V k Y.SXzXxX.XP.].U.}.U.O.Q k + 1 P -.2.< - 1 P / ` 1.1.j.I s h * w.Z.< ",
"u.:.e.i.S.+ U.AXsX}.P.2XgX5X,XU.O. .| | { { ,.6.6.3.2.P K _ ' s.j.L h M.a q % % ",
"o y.i.i.B 1  XlX3XU.2XzXkXpXeX,X2X0XfX;X@Xz.5.w.q.6.2.k.6.,.1.s.j.Y # D e 9 j 8 ",
"z A.r.e.N 4.-XzX<X>XcXkXkXhXgX,X,X4XxX7X@Xz.6.w.;.> P 6.f.5.s.s.p.a.L   y 8 8 8 ",
"Z i.J :.N 4.).AXrXjXaXhXzXCXCX:X3X8XZX;Xx.4.T p X & 6.5.s.s.p.o.p.<.F.T 3 j 7 7 ",
"r.r.x J B 4.Y.AXjXaX1X,XsXVXNXNX*XnX@X) @ u & r - =.6.5.p.p.1.' <.<.l.l.y f n.f ",
"r.J r.i.B -.+.AXjXiXkXrX{.U.} } l O O < o s 9.B.w.6.f.' ' p.p.' Y p.p.j.m.8 f f ",
"H J J A.V -.+.BXjXiXiXaXrX:X&XR.^.W.W./.b.bX(.v.,.1.1.' ' ' 1._ Y <.p.j.N.8 5 g ",
"J H J F 0.b { ;XkXyXiXiXtXeX8X9X=XnXnX/.Q.t.) / _ 1.' ` ' 5.` Y Y p.p.j.D.f 7 w ",
"G J r.Z y.b ( @XAXtXiXyXtXrX4X2X'.Y.t.b U P / / >._ <.` 1.1.Y I Y p.p.f.q.j 8 7 ",
"C Z H Z A :.M d.ZXhXyXyXwX1X1XoX].+.~ 1 L L T I I _ ` 1.p.Y U Y ` 1.h.l.R f 3 f ",
"J r.A Z C A.D v *XAXaXyXwX1X<XXX_.%.] K K 2 L I / ,.1.1.<.U I >.' 1.f.3.m.h 3 7 ",
"H H Z Z G F a B ..BXlXaXyXwXwX<X[.+.%.] Y Y >.<.1.f.1.1.U I >._ ' a.f.R M.w 8 7 ",
"H H Z C G A S.V ^ c.ZXaXaXuXyXtXrXoX[.%X'.$.p.p.f.p.3.I U Y _ 1.p.a.T R V.8 5 w ",
"H A G G y.m A m 8.K +XlXpXtXyXtXwX3XoX-X;X%.' p.,.>.U U Y _ ` 1.1.3.R V.m.3 w w ",
"H H G C F G m S.D w.1 @XdXeXwXwX<X{._.'.c.] / E E L P _ _ ` ' a.q.T R V.f 3 4 5 ",
"A Z A C C F . F a 8.8.^ +.-X7XfX-X'.+.o.] K - - - E >._ ` ` 1.6.q.R V.R 4 6 5 5 ",
"A G A C m t V m S.B M.0.^ { ).$X$.~ K 2 2 K L P >._ _ ` 5.5.f.w.d M.L.7 4 5 4 w ",
"A C A A m V D t B m 8.B.M.w.v.d.] _ >.=.E =.,.,.1.1.5.5.s.f.k.=.m.L.m.8 6 6 4 5 "
};
